#format: frame checksums
#version: 1
#hash: MD5
#tb 0: 1/50
#stream#, dts,        pts, duration,     size, hash
0,          0,          0,        1,    57600, 504a347654ef41e568c484ab017f5387
0,          1,          1,        1,    57600, 6110f151a39144da5616227d44b81c21
0,          2,          2,        1,    57600, a856b5e0675c59fb9329d087580c6c5b
0,          3,          3,        1,    57600, d951b271bf38e7c9b9d215f7a87a079c
0,          4,          4,        1,    57600, a9e6feb4142a111c74d46cdbac08f2e6
0,          5,          5,        1,    57600, 4802b599651e7aa35cd52d0dfbfaa4d3
0,          6,          6,        1,    57600, 1244f3b9da3341057566915e708c7afb
0,          7,          7,        1,    57600, 212a02d7ee8d56b6f2a4fd7ee6eb3c93
0,          8,          8,        1,    57600, 1872091be977628ff5435f9186f64a29
0,          9,          9,        1,    57600, d5255599c33859ee96474a20929dc4bb
0,         10,         10,        1,    57600, 16d0056501cd1bfc630f6f99672504a0
0,         11,         11,        1,    57600, 7dcca62c4dc5d508f38376533648bce6
0,         12,         12,        1,    57600, 1e1617813af32cbf7be3df11d275339e
0,         13,         13,        1,    57600, 88b036fde717f72485b24e346f55f9dc
0,         14,         14,        1,    57600, e689287b89b116ec71670ee479e15717
0,         15,         15,        1,    57600, 211aa3727dcde2d9dfe15d6cebda69e4
0,         16,         16,        1,    57600, 3037677f680cbdcac242da94717da3ff
0,         17,         17,        1,    57600, 0138ea9fd279a939df385ea0c97700ca
0,         18,         18,        1,    57600, 9da47cb99085c352f9e9a07639a9b3cb
0,         19,         19,        1,    57600, d369f4c840ccb61ce3aaffc77b5f230e
